<?xml version="1.0" encoding="UTF-8"?>
<svg version="1.1" xmlns="http://www.w3.org/2000/svg" width="512" height="512">
<path d="M0 0 C0.89072205 -0.00067474 1.78144409 -0.00134949 2.69915771 -0.00204468 C24.73727472 0.02442858 45.53804632 2.67864004 66.875 8.25 C67.70418945 8.46495117 68.53337891 8.67990234 69.38769531 8.90136719 C115.82116259 21.21368967 162.06309722 48.95863668 192.875 86.25 C194.06416016 87.58998047 194.06416016 87.58998047 195.27734375 88.95703125 C228.65880165 126.76489492 248.65562707 175.49501653 254.875 225.25 C254.9692627 225.93707031 255.06352539 226.62414062 255.16064453 227.33203125 C256.24500378 236.30175786 256.11886337 245.35373584 256.125 254.375 C256.12567474 255.26572205 256.12634949 256.15644409 256.12704468 257.07415771 C256.10057142 279.11227472 253.44635996 299.91304632 247.875 321.25 C247.66004883 322.07918945 247.44509766 322.90837891 247.22363281 323.76269531 C234.91131033 370.19616259 207.16636332 416.43809722 169.875 447.25 C168.53501953 448.43916016 168.53501953 448.43916016 167.16796875 449.65234375 C129.36010508 483.03380165 80.62998347 503.03062707 30.875 509.25 C30.18792969 509.3442627 29.50085938 509.43852539 28.79296875 509.53564453 C19.82324214 510.62000378 10.77126416 510.49386337 1.75 510.5 C0.85927795 510.50067474 -0.03144409 510.50134949 -0.94915771 510.50204468 C-22.98727472 510.47557142 -43.78804632 507.82135996 -65.125 502.25 C-65.95418945 502.03504883 -66.78337891 501.82009766 -67.63769531 501.59863281 C-114.07116259 489.28631033 -160.31309722 461.54136332 -191.125 424.25 C-192.31416016 422.91001953 -192.31416016 422.91001953 -193.52734375 421.54296875 C-226.90880165 383.73510508 -246.90562707 335.00498347 -253.125 285.25 C-253.2192627 284.56292969 -253.31352539 283.87585938 -253.41064453 283.16796875 C-254.49500378 274.19824214 -254.36886337 265.14626416 -254.375 256.125 C-254.37567474 255.23427795 -254.37634949 254.34355591 -254.37704468 253.42584229 C-254.35057142 231.38772528 -251.69635996 210.58695368 -246.125 189.25 C-245.91004883 188.42081055 -245.69509766 187.59162109 -245.47363281 186.73730469 C-233.16131033 140.30383741 -205.41636332 94.06190278 -168.125 63.25 C-167.23167969 62.45722656 -166.33835937 61.66445313 -165.41796875 60.84765625 C-127.61010508 27.46619835 -78.87998347 7.46937293 -29.125 1.25 C-28.43792969 1.1557373 -27.75085938 1.06147461 -27.04296875 0.96435547 C-18.07324214 -0.12000378 -9.02126416 0.00613663 0 0 Z " fill="#334C69" transform="translate(254.125,-0.25)"/>
<path d="M0 0 C1.19636581 -0.01142029 1.19636581 -0.01142029 2.41690063 -0.02307129 C4.09951661 -0.03384635 5.78219932 -0.03673595 7.46484375 -0.03222656 C10.02458628 -0.03125549 12.5813158 -0.07287472 15.140625 -0.1171875 C16.7812438 -0.12239626 18.42187294 -0.12508266 20.0625 -0.125 C20.82001556 -0.14139526 21.57753113 -0.15779053 22.35800171 -0.17468262 C27.31628004 -0.11096377 30.27710033 1.0284786 34.23989868 4.00524902 C37.35189748 7.20320506 37.91670887 10.14145593 37.95458984 14.50927734 C37.96734955 15.51066742 37.98010925 16.5120575 37.99325562 17.54379272 C37.99659409 19.15793564 37.99659409 19.15793564 38 20.8046875 C38.0066568 21.91679596 38.0133136 23.02890442 38.02017212 24.17471313 C38.03029443 26.52661485 38.03498927 28.87854527 38.03466797 31.23046875 C38.03903775 34.82339976 38.07535433 38.41509907 38.11328125 42.0078125 C38.11915017 44.29426664 38.12311906 46.5807266 38.125 48.8671875 C38.13937103 49.93923431 38.15374207 51.01128113 38.16854858 52.11581421 C38.13238186 58.03869236 37.87935785 61.92358548 33.6640625 66.46875 C29.54791584 69.87708173 25.47298047 69.93613931 20.328125 69.9375 C19.13175919 69.94892029 19.13175919 69.94892029 17.91122437 69.96057129 C16.22860839 69.97134635 14.54592568 69.97423595 12.86328125 69.96972656 C10.30353872 69.96875549 7.7468092 70.01037472 5.1875 70.0546875 C3.5468812 70.05989626 1.90625206 70.06258266 0.265625 70.0625 C-0.49189056 70.07889526 -1.24940613 70.09529053 -2.02987671 70.11218262 C-7.67778166 70.03960137 -11.23715711 68.36903357 -15.3359375 64.46875 C-18.42614795 59.94312739 -18.72322887 55.92269852 -18.5234375 50.59375 C-18.4615625 48.2425 -18.3996875 45.89125 -18.3359375 43.46875 C-26.5859375 43.46875 -34.8359375 43.46875 -43.3359375 43.46875 C-43.3359375 69.86875 -43.3359375 96.26875 -43.3359375 123.46875 C-35.0859375 123.46875 -26.8359375 123.46875 -18.3359375 123.46875 C-18.4390625 120.82875 -18.5421875 118.18875 -18.6484375 115.46875 C-18.72788225 109.55962697 -18.57229539 104.92206278 -15.11328125 99.9140625 C-8.34945232 94.41380601 -0.39601344 94.9749047 7.85180664 95.02270508 C10.09289421 95.03121708 12.33142887 95.00240265 14.57226562 94.97070312 C29.14130347 94.8917409 29.14130347 94.8917409 34.6640625 99.46875 C38.86608582 105.27747105 39.25574128 109.8811265 39.1953125 116.93359375 C39.1991394 117.9257338 39.20296631 118.91787384 39.20690918 119.94007874 C39.20962109 122.03029398 39.20231063 124.12054358 39.18554688 126.21069336 C39.16415028 129.39319315 39.18536199 132.57342975 39.2109375 135.75585938 C39.20829365 137.79427577 39.2031675 139.83269077 39.1953125 141.87109375 C39.20340942 142.81403793 39.21150635 143.75698212 39.21984863 144.72850037 C39.13566223 150.7227132 38.22030594 155.52297449 34.6640625 160.46875 C28.34345605 166.06635693 19.38140996 165.07513657 11.43652344 164.99023438 C9.03739058 164.96873502 6.64123069 164.99012413 4.2421875 165.015625 C2.70311846 165.01298258 1.16405125 165.00785937 -0.375 165 C-1.08451813 165.00809692 -1.79403625 165.01619385 -2.52505493 165.02453613 C-7.57510599 164.93012715 -10.4394451 163.6266156 -14.3359375 160.46875 C-16.91295859 157.03272188 -17.3359375 155.86802132 -17.3359375 151.46875 C-18.63740723 151.48969727 -19.93887695 151.51064453 -21.27978516 151.53222656 C-26.12146953 151.60478193 -30.9631061 151.65060647 -35.80517578 151.68847656 C-37.89835703 151.70855659 -39.99148242 151.7358264 -42.08447266 151.77050781 C-45.09812219 151.81918434 -48.11102823 151.84175512 -51.125 151.859375 C-52.52221786 151.89034271 -52.52221786 151.89034271 -53.94766235 151.92193604 C-59.58043696 151.92386888 -62.97712676 151.39159818 -67.3359375 147.46875 C-72.02767883 142.28288468 -71.87094848 137.67797515 -71.7265625 131.0390625 C-71.72253418 130.16048584 -71.71850586 129.28190918 -71.71435547 128.37670898 C-71.69353151 125.1155082 -71.63768623 121.85460667 -71.5859375 118.59375 C-71.5034375 111.2925 -71.4209375 103.99125 -71.3359375 96.46875 C-88.8259375 96.46875 -106.3159375 96.46875 -124.3359375 96.46875 C-124.3359375 102.40875 -124.3359375 108.34875 -124.3359375 114.46875 C-129.56180692 122.30755413 -129.56180692 122.30755413 -135.3359375 124.46875 C-138.16041058 124.8570151 -140.58215167 125.05496018 -143.39453125 125.03515625 C-144.1425148 125.04135483 -144.89049835 125.04755341 -145.66114807 125.05393982 C-147.23347685 125.06100165 -148.80588098 125.05792787 -150.37817383 125.04516602 C-152.7646038 125.03130132 -155.14710345 125.06541472 -157.53320312 125.10351562 C-171.59775014 125.17776161 -171.59775014 125.17776161 -176.97363281 120.85791016 C-180.39953685 117.36447037 -181.47042278 114.89135167 -181.62890625 110.04296875 C-181.61191451 108.41377177 -181.57317805 106.78477615 -181.5234375 105.15625 C-181.4615625 102.289375 -181.3996875 99.4225 -181.3359375 96.46875 C-189.5859375 96.46875 -197.8359375 96.46875 -206.3359375 96.46875 C-206.3359375 149.59875 -206.3359375 202.72875 -206.3359375 257.46875 C-198.0859375 257.46875 -189.8359375 257.46875 -181.3359375 257.46875 C-181.4931592 252.1434322 -181.4931592 252.1434322 -181.69628906 246.81982422 C-181.77412048 241.55867113 -180.91947856 238.56253035 -177.3359375 234.46875 C-172.42227217 230.46139109 -168.94915022 229.87266444 -162.8671875 229.9375 C-162.06865356 229.9336731 -161.27011963 229.92984619 -160.4473877 229.92590332 C-158.76650728 229.92319289 -157.08558407 229.93049312 -155.40478516 229.94726562 C-152.84311204 229.96869 -150.28424294 229.94743679 -147.72265625 229.921875 C-146.08332719 229.92451843 -144.44399987 229.92964374 -142.8046875 229.9375 C-142.04514771 229.92940308 -141.28560791 229.92130615 -140.50305176 229.91296387 C-135.35465476 230.003004 -132.36295895 231.00256284 -128.3359375 234.46875 C-124.3359375 240.46875 -124.3359375 240.46875 -124.3359375 258.46875 C-106.8459375 258.46875 -89.3559375 258.46875 -71.3359375 258.46875 C-71.6121945 244.34767609 -71.6121945 244.34767609 -71.96655273 230.22851562 C-71.98701762 228.44404038 -72.0048503 226.6595322 -72.01953125 224.875 C-72.05534302 223.96588867 -72.09115479 223.05677734 -72.12805176 222.12011719 C-72.13414139 215.69642165 -70.51429866 212.5467622 -66.03846741 207.95056152 C-63.27787844 205.54785921 -61.55039935 205.34524592 -57.97802734 205.35522461 C-56.62685318 205.35533791 -56.62685318 205.35533791 -55.24838257 205.35545349 C-54.27438507 205.36061478 -53.30038757 205.36577606 -52.296875 205.37109375 C-51.30088287 205.3725087 -50.30489075 205.37392365 -49.27871704 205.37538147 C-46.08942697 205.38099064 -42.90020644 205.3935447 -39.7109375 205.40625 C-37.55208435 205.41126382 -35.39323009 205.41582693 -33.234375 205.41992188 C-27.934872 205.43096305 -22.63540972 205.44771012 -17.3359375 205.46875 C-17.35938232 204.5209668 -17.38282715 203.57318359 -17.40698242 202.59667969 C-17.32844382 199.13882224 -16.92168282 198.21531161 -14.6484375 195.71875 C-14.14957031 195.14640625 -13.65070313 194.5740625 -13.13671875 193.984375 C-7.26564263 189.04299206 0.47488187 190.06118619 7.70092773 190.04321289 C9.95993217 190.03133742 12.21618224 189.98213442 14.47460938 189.93164062 C27.45621428 189.779707 27.45621428 189.779707 33.11010742 193.70678711 C38.55804734 199.88397209 39.27242425 204.94011205 39.23046875 212.93359375 C39.23666733 213.9257338 39.24286591 214.91787384 39.24925232 215.94007874 C39.25632993 218.03027367 39.25321263 220.12052523 39.24047852 222.21069336 C39.22661811 225.39347997 39.26070947 228.5733208 39.29882812 231.75585938 C39.29977951 233.79427155 39.29791947 235.83268737 39.29296875 237.87109375 C39.30622696 238.81403793 39.31948517 239.75698212 39.33314514 240.72850037 C39.24386419 247.12376398 38.04277436 251.67079558 33.6640625 256.46875 C29.1935266 260.22907645 24.76130276 260.98005229 19.0078125 261 C18.30184937 261.0038269 17.59588623 261.00765381 16.86853027 261.01159668 C15.38613445 261.01430073 13.90368968 261.00704566 12.42138672 260.99023438 C10.16915195 260.96879844 7.92010586 260.99008277 5.66796875 261.015625 C4.21874305 261.01298145 2.76951932 261.0078559 1.3203125 261 C0.01900391 260.99548828 -1.28230469 260.99097656 -2.62304688 260.98632812 C-7.70380091 260.27806941 -11.27665147 258.33794809 -15.11328125 254.85546875 C-19.66996399 248.18153949 -18.68281618 241.23883243 -18.3359375 233.46875 C-26.5859375 233.46875 -34.8359375 233.46875 -43.3359375 233.46875 C-43.3359375 259.86875 -43.3359375 286.26875 -43.3359375 313.46875 C-35.0859375 313.46875 -26.8359375 313.46875 -18.3359375 313.46875 C-18.4390625 310.82875 -18.5421875 308.18875 -18.6484375 305.46875 C-18.72788225 299.55962697 -18.57229539 294.92206278 -15.11328125 289.9140625 C-8.34945232 284.41380601 -0.39601344 284.9749047 7.85180664 285.02270508 C10.09289421 285.03121708 12.33142887 285.00240265 14.57226562 284.97070312 C22.0629941 284.93177859 28.38241428 284.91513884 34.6640625 289.46875 C38.82336308 294.25962783 38.09640811 299.94020728 38.0625 305.9375 C38.06537018 307.05056519 38.06824036 308.16363037 38.07119751 309.3104248 C38.07323635 311.66056833 38.06771914 314.0107289 38.05517578 316.36083984 C38.03912038 319.95579006 38.05503144 323.54961596 38.07421875 327.14453125 C38.07223629 329.42968998 38.06839255 331.71484801 38.0625 334 C38.06857269 335.07407104 38.07464539 336.14814209 38.0809021 337.25476074 C37.99261646 346.63315912 37.99261646 346.63315912 34.6640625 350.46875 C27.78515885 355.47625005 20.40063291 355.01750061 12.23608398 354.88037109 C9.97138734 354.84366612 7.70832381 354.83935387 5.44335938 354.83984375 C-8.55377707 354.74506308 -8.55377707 354.74506308 -14.0859375 350.21875 C-16.61154044 347.13190196 -16.84384936 345.34126968 -17.3359375 341.46875 C-19.28814209 341.5001709 -19.28814209 341.5001709 -21.27978516 341.53222656 C-26.12146953 341.60478193 -30.9631061 341.65060647 -35.80517578 341.68847656 C-37.89835703 341.70855659 -39.99148242 341.7358264 -42.08447266 341.77050781 C-45.09812219 341.81918434 -48.11102823 341.84175512 -51.125 341.859375 C-52.52221786 341.89034271 -52.52221786 341.89034271 -53.94766235 341.92193604 C-59.58043696 341.92386888 -62.97712676 341.39159818 -67.3359375 337.46875 C-72.02767883 332.28288468 -71.87094848 327.67797515 -71.7265625 321.0390625 C-71.72253418 320.16048584 -71.71850586 319.28190918 -71.71435547 318.37670898 C-71.69353151 315.1155082 -71.63768623 311.85460667 -71.5859375 308.59375 C-71.5034375 301.2925 -71.4209375 293.99125 -71.3359375 286.46875 C-88.8259375 286.46875 -106.3159375 286.46875 -124.3359375 286.46875 C-124.3359375 292.40875 -124.3359375 298.34875 -124.3359375 304.46875 C-129.30748587 311.92607255 -129.30748587 311.92607255 -134.3359375 314.46875 C-137.17236304 315.00408149 -139.92408924 315.03070805 -142.8046875 315 C-143.60322144 315.0038269 -144.40175537 315.00765381 -145.2244873 315.01159668 C-146.90536772 315.01430711 -148.58629093 315.00700688 -150.26708984 314.99023438 C-152.82876296 314.96881 -155.38763206 314.99006321 -157.94921875 315.015625 C-159.58854781 315.01298157 -161.22787513 315.00785626 -162.8671875 315 C-163.62672729 315.00809692 -164.38626709 315.01619385 -165.16882324 315.02453613 C-170.31722024 314.934496 -173.30891605 313.93493716 -177.3359375 310.46875 C-181.89815724 305.37779619 -181.83991393 301.07991724 -181.5859375 294.59375 C-181.56789062 293.71460938 -181.54984375 292.83546875 -181.53125 291.9296875 C-181.48442129 289.7755668 -181.41268744 287.62201226 -181.3359375 285.46875 C-183.24270264 285.5001709 -183.24270264 285.5001709 -185.18798828 285.53222656 C-189.91785353 285.60479256 -194.64766985 285.65061025 -199.37792969 285.68847656 C-201.4226103 285.7085542 -203.46723377 285.73582225 -205.51171875 285.77050781 C-208.45587287 285.81919519 -211.39926584 285.84175744 -214.34375 285.859375 C-215.2533548 285.88002014 -216.16295959 285.90066528 -217.10012817 285.92193604 C-222.7008782 285.92390261 -225.89670899 285.22254143 -230.3359375 281.46875 C-234.43707276 276.80194091 -234.47753182 272.48405977 -234.44946289 266.5090332 C-234.44960892 265.69904877 -234.44975494 264.88906433 -234.4499054 264.05453491 C-234.4492085 261.37617315 -234.44142653 258.69788087 -234.43359375 256.01953125 C-234.43172878 254.16293882 -234.43030525 252.3063459 -234.42930603 250.44975281 C-234.4254871 245.56219119 -234.41566211 240.67465926 -234.40460205 235.78710938 C-234.39437454 230.80013429 -234.38980553 225.81315442 -234.38476562 220.82617188 C-234.37403931 211.04034943 -234.35644753 201.25455683 -234.3359375 191.46875 C-242.9159375 191.46875 -251.4959375 191.46875 -260.3359375 191.46875 C-260.21803273 196.79369411 -260.21803273 196.79369411 -260.06567383 202.11767578 C-260.01165337 206.98648759 -260.65534358 210.24729212 -263.3359375 214.46875 C-268.44659907 219.19611195 -272.56270026 219.64102043 -279.29296875 219.70703125 C-280.07355148 219.715103 -280.85413422 219.72317474 -281.65837097 219.73149109 C-283.31006664 219.7453132 -284.96179065 219.75604373 -286.61352539 219.76391602 C-289.12897385 219.78111691 -291.64310327 219.82501607 -294.15820312 219.86914062 C-295.76561537 219.87926942 -297.37303875 219.88778494 -298.98046875 219.89453125 C-300.10108452 219.92079338 -300.10108452 219.92079338 -301.24433899 219.94758606 C-306.43901641 219.9261997 -309.32559605 218.72259436 -313.3359375 215.46875 C-316.98263649 211.31905805 -317.46419474 207.85937584 -317.51293945 202.44018555 C-317.52577469 201.19847092 -317.53860992 199.95675629 -317.55183411 198.67741394 C-317.56000206 197.32010294 -317.56744568 195.96278742 -317.57421875 194.60546875 C-317.57829428 193.92065744 -317.5823698 193.23584614 -317.58656883 192.53028297 C-317.60741002 188.90536427 -317.62171997 185.28048319 -317.63110352 181.65551758 C-317.64216246 177.91962324 -317.67656101 174.18432543 -317.71627522 170.44864178 C-317.74247273 167.56863835 -317.75079808 164.68877641 -317.75438499 161.80866432 C-317.75924313 160.43199448 -317.77083522 159.05533062 -317.78942299 157.67877769 C-317.92752833 146.7730482 -317.92752833 146.7730482 -315.68432617 141.82739258 C-311.18044131 137.30384214 -307.87305418 135.02630023 -301.32128906 134.93861389 C-300.58362305 134.94984787 -299.84595703 134.96108185 -299.0859375 134.97265625 C-298.30959961 134.97120102 -297.53326172 134.96974579 -296.73339844 134.96824646 C-295.09957102 134.96989909 -293.465727 134.98138894 -291.83203125 135.00219727 C-289.34307159 135.03116696 -286.85624366 135.0227909 -284.3671875 135.00976562 C-282.77342724 135.01600377 -281.17967364 135.02439531 -279.5859375 135.03515625 C-278.84827148 135.03222061 -278.11060547 135.02928497 -277.35058594 135.02626038 C-272.61503953 135.11195608 -269.36067985 135.97459085 -265.3359375 138.46875 C-261.78545178 142.30711294 -260.19899433 145.25530782 -260.23828125 150.48046875 C-260.24077881 151.16326904 -260.24327637 151.84606934 -260.24584961 152.54956055 C-260.25495361 153.40976807 -260.26405762 154.26997559 -260.2734375 155.15625 C-260.2940625 157.899375 -260.3146875 160.6425 -260.3359375 163.46875 C-251.7559375 163.46875 -243.1759375 163.46875 -234.3359375 163.46875 C-234.3673584 160.9002124 -234.3987793 158.3316748 -234.43115234 155.68530273 C-234.53068221 147.18782432 -234.59688999 138.69031979 -234.64681053 130.19241238 C-234.67808991 125.0412907 -234.72050092 119.89076749 -234.78857422 114.73999023 C-234.85388754 109.76678164 -234.88966907 104.79414775 -234.90520096 99.82054329 C-234.91626582 97.92550677 -234.93787361 96.03050083 -234.97031784 94.13570976 C-235.01404172 91.4757746 -235.01986516 88.81819714 -235.01708984 86.15795898 C-235.0386615 85.3789624 -235.06023315 84.59996582 -235.0824585 83.79736328 C-235.02295247 78.50732094 -233.5854021 75.76987984 -230.01511574 71.8898325 C-226.79935592 69.16834654 -224.11247865 68.21712329 -219.93457031 68.24169922 C-219.0739801 68.24185028 -218.21338989 68.24200134 -217.32672119 68.24215698 C-216.40679382 68.25247955 -215.48686646 68.26280212 -214.5390625 68.2734375 C-213.59029236 68.2762674 -212.64152222 68.27909729 -211.66400146 68.28201294 C-208.63785111 68.29319552 -205.6119982 68.3182967 -202.5859375 68.34375 C-200.53255636 68.35378228 -198.47917058 68.3629077 -196.42578125 68.37109375 C-191.39571896 68.39312859 -186.36587864 68.42764538 -181.3359375 68.46875 C-181.37074219 67.32277344 -181.40554687 66.17679687 -181.44140625 64.99609375 C-181.46956453 63.46616061 -181.49686249 61.93621146 -181.5234375 60.40625 C-181.54857422 59.65408203 -181.57371094 58.90191406 -181.59960938 58.12695312 C-181.67719293 52.1530195 -180.80636399 47.47290546 -176.890625 42.71118164 C-170.43797658 38.31343914 -163.15057194 38.74791427 -155.64550781 38.87182617 C-153.34055385 38.90618119 -151.03943597 38.89244396 -148.734375 38.87304688 C-141.11579395 38.88098972 -134.82530793 39.03476127 -128.3359375 43.46875 C-121.81083048 50.20434435 -124.3359375 59.52934476 -124.3359375 68.46875 C-106.8459375 68.46875 -89.3559375 68.46875 -71.3359375 68.46875 C-71.49394599 54.58733104 -71.49394599 54.58733104 -71.69628906 40.70654297 C-71.70797854 38.95801777 -71.71816976 37.20948163 -71.7265625 35.4609375 C-71.74702637 34.56318604 -71.76749023 33.66543457 -71.78857422 32.74047852 C-71.79246004 25.72851306 -69.93040578 22.36694475 -65.23168945 17.11816406 C-60.884986 14.64229115 -56.91963882 14.97224649 -52.00390625 15.078125 C-51.01215897 15.08378479 -50.02041168 15.08944458 -48.99861145 15.09527588 C-45.83972336 15.11761656 -42.68198114 15.16780962 -39.5234375 15.21875 C-37.37827162 15.23881794 -35.23308791 15.2570682 -33.08789062 15.2734375 C-27.83685047 15.31747355 -22.58647586 15.3843625 -17.3359375 15.46875 C-17.37074219 14.54449219 -17.40554688 13.62023437 -17.44140625 12.66796875 C-17.30308736 8.47229582 -15.97751108 6.68147462 -13.3359375 3.46875 C-9.10348186 0.18711274 -5.1735699 0.00136829 0 0 Z " fill="#FDFDFD" transform="translate(367.3359375,77.53125)"/>
<path d="M0 0 C0.89072205 -0.00067474 1.78144409 -0.00134949 2.69915771 -0.00204468 C24.73727472 0.02442858 45.53804632 2.67864004 66.875 8.25 C67.70418945 8.46495117 68.53337891 8.67990234 69.38769531 8.90136719 C115.82116259 21.21368967 162.06309722 48.95863668 192.875 86.25 C194.06416016 87.58998047 194.06416016 87.58998047 195.27734375 88.95703125 C228.65880165 126.76489492 248.65562707 175.49501653 254.875 225.25 C254.9692627 225.93707031 255.06352539 226.62414062 255.16064453 227.33203125 C256.24500378 236.30175786 256.11886337 245.35373584 256.125 254.375 C256.12567474 255.26572205 256.12634949 256.15644409 256.12704468 257.07415771 C256.10057142 279.11227472 253.44635996 299.91304632 247.875 321.25 C247.66004883 322.07918945 247.44509766 322.90837891 247.22363281 323.76269531 C234.91131033 370.19616259 207.16636332 416.43809722 169.875 447.25 C168.53501953 448.43916016 168.53501953 448.43916016 167.16796875 449.65234375 C129.36010508 483.03380165 80.62998347 503.03062707 30.875 509.25 C30.18792969 509.3442627 29.50085938 509.43852539 28.79296875 509.53564453 C19.82324214 510.62000378 10.77126416 510.49386337 1.75 510.5 C0.85927795 510.50067474 -0.03144409 510.50134949 -0.94915771 510.50204468 C-22.98727472 510.47557142 -43.78804632 507.82135996 -65.125 502.25 C-65.95418945 502.03504883 -66.78337891 501.82009766 -67.63769531 501.59863281 C-114.07116259 489.28631033 -160.31309722 461.54136332 -191.125 424.25 C-192.31416016 422.91001953 -192.31416016 422.91001953 -193.52734375 421.54296875 C-226.90880165 383.73510508 -246.90562707 335.00498347 -253.125 285.25 C-253.2192627 284.56292969 -253.31352539 283.87585938 -253.41064453 283.16796875 C-254.49500378 274.19824214 -254.36886337 265.14626416 -254.375 256.125 C-254.37567474 255.23427795 -254.37634949 254.34355591 -254.37704468 253.42584229 C-254.35057142 231.38772528 -251.69635996 210.58695368 -246.125 189.25 C-245.91004883 188.42081055 -245.69509766 187.59162109 -245.47363281 186.73730469 C-233.16131033 140.30383741 -205.41636332 94.06190278 -168.125 63.25 C-167.23167969 62.45722656 -166.33835937 61.66445313 -165.41796875 60.84765625 C-127.61010508 27.46619835 -78.87998347 7.46937293 -29.125 1.25 C-28.43792969 1.1557373 -27.75085938 1.06147461 -27.04296875 0.96435547 C-18.07324214 -0.12000378 -9.02126416 0.00613663 0 0 Z M-158.125 75.25 C-159.81149136 76.75113395 -161.49899713 78.25112899 -163.1875 79.75 C-207.57327284 119.75285169 -236.00671483 178.72688276 -239.24801636 238.51928711 C-239.44844943 243.95003766 -239.46321048 249.37872069 -239.4375 254.8125 C-239.43534485 255.63938324 -239.4331897 256.46626648 -239.43096924 257.31820679 C-239.2119003 309.97389641 -221.89470347 363.33980279 -188.125 404.25 C-187.34511719 405.23226563 -186.56523437 406.21453125 -185.76171875 407.2265625 C-173.65696964 422.09864927 -159.89092323 436.27986869 -144.125 447.25 C-142.9211789 448.12013151 -141.71808775 448.99127355 -140.515625 449.86328125 C-110.69653473 471.2055124 -77.16654012 485.51057811 -41.125 492.25 C-39.84713623 492.49556641 -39.84713623 492.49556641 -38.54345703 492.74609375 C20.76264497 503.64985571 85.57742033 488.70210861 135.125 454.8125 C154.83829744 441.02165243 172.90687126 425.13776965 187.875 406.25 C188.69355469 405.22519531 189.51210938 404.20039063 190.35546875 403.14453125 C213.61989874 373.70578391 228.87514247 339.49560887 236.6875 302.875 C236.88255127 301.96177979 237.07760254 301.04855957 237.27856445 300.10766602 C240.24899591 285.31578218 241.25856522 270.67771517 241.1875 255.625 C241.18534485 254.79650543 241.1831897 253.96801086 241.18096924 253.1144104 C240.90590778 186.92397131 212.93903504 126.8673436 166.42822266 80.4987793 C159.6214917 73.82395185 152.61609161 67.80216643 144.875 62.25 C143.28171875 61.09177734 143.28171875 61.09177734 141.65625 59.91015625 C100.48125047 30.67790537 51.836984 14.69843826 1.3125 14.9375 C0.07217514 14.94073273 0.07217514 14.94073273 -1.19320679 14.94403076 C-58.84491487 15.18388516 -115.58115107 35.96276492 -158.125 75.25 Z " fill="#3E5672" transform="translate(254.125,-0.25)"/>
</svg>
