<?xml version="1.0" encoding="UTF-8"?>
<svg version="1.1" xmlns="http://www.w3.org/2000/svg" width="980" height="980">
<path d="M0 0 C3.35279398 0.00915643 6.70488904 0.00231544 10.05761719 -0.02050781 C42.77488503 -0.24176803 74.41160863 2.70750008 106.48510742 9.44604492 C107.52296387 9.6595459 108.56082031 9.87304688 109.63012695 10.09301758 C186.5885205 26.11654253 261.83178511 62.11466824 320.93139648 114.1027832 C323.35553388 116.19857263 325.85974596 118.1923306 328.36010742 120.19604492 C332.36357312 123.44336556 336.01834587 126.86665423 339.60620117 130.56323242 C341.41492213 132.37571371 343.28486224 134.03813628 345.23510742 135.69604492 C352.91347962 142.31428684 360.09833063 149.6219565 366.66088867 157.34448242 C368.50122767 159.464616 370.40728764 161.51426585 372.32666016 163.56274414 C378.323128 169.98433858 383.77181671 176.72700437 389.12329102 183.69018555 C390.44115129 185.38937004 391.78007853 187.06884532 393.12963867 188.74291992 C410.00071927 209.72473642 424.50405197 232.45969888 437.24926758 256.1550293 C438.08351248 257.7015631 438.92450876 259.24447134 439.77172852 260.78393555 C470.42484016 316.48385112 488.10018864 379.35174515 494.48510742 442.44604492 C494.6133213 443.70295639 494.6133213 443.70295639 494.74412537 444.98526001 C495.52714583 453.35604937 495.68069333 461.70201645 495.72338867 470.10229492 C495.72823273 470.83563301 495.73307678 471.5689711 495.73806763 472.32453156 C495.77423308 477.8650301 495.79036147 483.40543903 495.79760742 488.94604492 C495.7989053 489.75783707 495.80020317 490.56962921 495.80154037 491.40602112 C495.8305746 515.3291908 495.46362464 538.79400168 491.48510742 562.44604492 C491.29255371 563.67291016 491.1 564.89977539 490.90161133 566.16381836 C489.62059845 574.29937385 488.14146443 582.37883889 486.48510742 590.44604492 C486.26628906 591.5140332 486.0474707 592.58202148 485.82202148 593.68237305 C478.38541885 629.23559378 466.47779323 663.40797538 451.48510742 696.44604492 C450.93886719 697.66614258 450.93886719 697.66614258 450.3815918 698.91088867 C444.24964617 712.56483707 437.01939596 725.52178617 429.48510742 738.44604492 C429.05665527 739.1840332 428.62820313 739.92202148 428.18676758 740.68237305 C414.85509048 763.56814339 399.37180723 785.2119019 382.14135742 805.31713867 C379.6713764 808.20619788 377.29508918 811.16376581 374.92260742 814.13354492 C371.22892467 818.679616 367.26091257 822.80633998 363.03979492 826.86401367 C360.98533152 828.94046674 359.09294241 831.03943359 357.19604492 833.25463867 C353.4610374 837.56344894 349.41546457 841.44891906 345.23510742 845.32104492 C344.4885791 846.01721924 343.74205078 846.71339355 342.97290039 847.43066406 C340.8143918 849.44025374 338.65046712 851.44384304 336.48510742 853.44604492 C335.6551123 854.21779053 335.6551123 854.21779053 334.80834961 855.00512695 C328.25172599 861.0989554 321.4940175 866.88038727 314.48510742 872.44604492 C313.8525 872.95119629 313.21989258 873.45634766 312.56811523 873.97680664 C246.5736924 926.53942342 169.01575027 961.13359626 85.92260742 975.32104492 C84.88160889 975.49998291 83.84061035 975.6789209 82.76806641 975.86328125 C79.01487145 976.45977979 75.25462411 976.96690718 71.48510742 977.44604492 C70.5371933 977.56992584 69.58927917 977.69380676 68.61264038 977.82144165 C49.24981934 980.28682227 30.15218608 980.95141368 10.65869141 980.89208984 C7.51356274 980.88293737 4.36917952 980.88977003 1.22412109 980.91259766 C-84.60731375 981.53102419 -169.43787091 957.78997689 -299.51489258 875.44604492 C-300.44172852 874.7009668 -301.36856445 873.95588867 -302.32348633 873.18823242 C-322.03974495 857.22063835 -322.03974495 857.22063835 -329.96020508 849.00463867 C-331.65651983 847.30406182 -333.43795555 845.75517793 -335.26489258 844.19604492 C-342.57931598 837.87581499 -349.38835315 830.93922097 -355.65551758 823.58276367 C-357.50994791 821.45172714 -359.42739461 819.38846429 -361.35864258 817.32714844 C-367.35406581 810.90600852 -372.80222924 804.16426916 -378.15307617 797.2019043 C-379.47093645 795.5027198 -380.80986369 793.82324452 -382.15942383 792.14916992 C-399.00760155 771.19583672 -413.52138726 748.49059927 -426.23608398 724.81860352 C-427.11114511 723.19511287 -427.99402202 721.57581731 -428.88354492 719.96020508 C-463.28098222 657.45049815 -484.42238542 582.74373061 -484.75317383 511.35229492 C-484.75724936 510.59182358 -484.76132488 509.83135223 -484.76552391 509.0478363 C-484.78627483 504.99926036 -484.80060691 500.95071691 -484.81005859 496.90209961 C-484.81878883 493.64083417 -484.83936345 490.38001303 -484.87158203 487.11889648 C-485.70181826 401.09663327 -462.1984784 314.46281428 -414.51489258 235.44604492 C-413.64609076 234.00222234 -412.77757631 232.55822678 -411.90942383 231.11401367 C-396.25877209 205.33888305 -377.61310586 181.36069815 -357.12036133 159.27026367 C-354.77914549 156.73248398 -352.48696267 154.15966131 -350.20239258 151.57104492 C-342.48144143 142.9752378 -334.30751073 134.59889326 -325.47973633 127.13354492 C-323.05531528 125.05133837 -320.73139226 122.87102285 -318.38989258 120.69604492 C-312.65026651 115.4681825 -306.62080826 110.7002599 -300.47192383 105.96606445 C-298.41937081 104.37185349 -296.38792622 102.75334691 -294.35864258 101.12963867 C-267.59548284 79.81589589 -238.05862598 62.72304158 -207.51489258 47.44604492 C-206.37358887 46.8654834 -206.37358887 46.8654834 -205.20922852 46.27319336 C-165.03569368 25.88458891 -120.40928205 13.1893771 -76.13989258 5.63354492 C-75.07496582 5.45073975 -74.01003906 5.26793457 -72.9128418 5.07958984 C-69.12100726 4.47214368 -65.32163664 3.94867845 -61.51489258 3.44604492 C-60.6067984 3.3210965 -59.69870422 3.19614807 -58.76309204 3.06741333 C-39.14418126 0.43110187 -19.75949872 -0.05645285 0 0 Z " fill="#0EA982" transform="translate(484.514892578125,-0.446044921875)"/>
<path d="M0 0 C0.77251099 -0.0023465 1.54502197 -0.00469299 2.34094238 -0.0071106 C36.99214949 0.03629515 66.61973469 14.75004978 91.1875 38.8125 C98.8109797 46.4694059 104.98300054 55.18913469 110.4375 64.5 C111.89642004 64.38204476 113.35461177 64.25508849 114.8125 64.125 C115.62460937 64.05539062 116.43671875 63.98578125 117.2734375 63.9140625 C119.88541804 63.57224776 122.31401858 63.07401798 124.875 62.48828125 C131.57685233 61.12523487 138.24240963 61.07433236 145.0625 61.0625 C145.73614594 61.06076782 146.40979187 61.05903564 147.10385132 61.05725098 C182.02295923 61.09639969 213.35534302 75.22149882 238.5 99.1875 C250.30346105 111.30896238 258.99519364 126.14518108 264.75 142 C264.98041992 142.62688721 265.21083984 143.25377441 265.44824219 143.8996582 C269.90981496 156.94206054 271.0521691 169.89261386 271 183.5625 C270.9987764 184.77714432 270.9987764 184.77714432 270.99752808 186.0163269 C270.8974723 207.69481266 265.63453272 229.20445093 253.4375 247.5 C253.60677885 250.54218281 254.03007997 252.04806377 256.08203125 254.32421875 C256.79746094 254.93910156 257.51289062 255.55398438 258.25 256.1875 C273.49502656 270.85084034 283.61724842 292.12348195 288.4375 312.5 C288.88222656 313.97919922 288.88222656 313.97919922 289.3359375 315.48828125 C297.16643959 344.33182795 290.29535149 377.26453147 276.0625 402.9375 C265.64779731 419.62442814 252.31590179 434.24883971 235.4375 444.5 C234.44024902 445.1185083 234.44024902 445.1185083 233.42285156 445.74951172 C215.02843472 457.0345075 196.17908638 462.02405172 174.75 463.625 C173.65494141 463.71136719 172.55988281 463.79773438 171.43164062 463.88671875 C168.76727345 464.09614499 166.10262503 464.30049251 163.4375 464.5 C163.27926758 465.26699219 163.12103516 466.03398438 162.95800781 466.82421875 C161.19793962 475.09093771 158.08210891 482.2727975 154.30761719 489.77050781 C153.54595644 491.28442608 152.80626705 492.80935749 152.0703125 494.3359375 C142.18407068 513.81592877 126.08364848 531.21310773 107.4375 542.5 C106.77943359 542.91088867 106.12136719 543.32177734 105.44335938 543.74511719 C79.75026913 559.6520581 46.47794334 565.51245325 16.75 558.875 C-5.93931992 553.25110789 -25.64990082 541.44778647 -42.5625 525.5 C-43.22765625 524.89929688 -43.8928125 524.29859375 -44.578125 523.6796875 C-53.09249472 515.68448667 -59.94589897 505.69649298 -65.5625 495.5 C-69.11724349 495.97061514 -72.577154 496.5031355 -76.0859375 497.25390625 C-93.0801865 500.82166441 -111.53805253 501.16906195 -128.5625 497.5 C-130.34914063 497.11521484 -130.34914063 497.11521484 -132.171875 496.72265625 C-153.28204226 491.62030255 -172.65096613 481.19943642 -188.5625 466.5 C-189.64917969 465.53513672 -189.64917969 465.53513672 -190.7578125 464.55078125 C-205.93653585 450.3860212 -215.76635525 431.17038101 -221.5625 411.5 C-222.02269531 410.11167969 -222.02269531 410.11167969 -222.4921875 408.6953125 C-230.98459652 382.73280492 -226.21774154 347.73760456 -214.5625 323.5 C-212.95339163 320.59466545 -211.31899996 317.71765511 -209.6015625 314.875 C-208.38887555 312.60446523 -208.38887555 312.60446523 -208.71484375 310.3671875 C-209.69551013 308.20700994 -210.71381172 307.1800345 -212.5 305.625 C-233.66227311 285.28666785 -246.12180747 253.55772642 -246.765625 224.5859375 C-247.04313436 197.54884643 -247.04313436 197.54884643 -243.5625 186.5 C-243.33675293 185.77876953 -243.11100586 185.05753906 -242.87841797 184.31445312 C-237.79194367 168.4548853 -230.62874297 154.04591011 -219.5625 141.5 C-218.82644531 140.62085938 -218.09039062 139.74171875 -217.33203125 138.8359375 C-196.85520982 115.11890126 -165.72046541 99.57299907 -134.5625 96.5 C-129.22483786 96.22186721 -123.90144718 96.30598711 -118.5625 96.5 C-118.43875 95.81421875 -118.315 95.1284375 -118.1875 94.421875 C-111.778803 64.46121651 -91.24226647 37.68670358 -66.4453125 20.31640625 C-53.73464945 12.18601953 -40.25643424 5.96749383 -25.5625 2.5 C-24.96058838 2.32629883 -24.35867676 2.15259766 -23.73852539 1.97363281 C-15.9636811 -0.09224114 -7.98838666 0.01539904 0 0 Z " fill="#FCFEFD" transform="translate(467.5625,209.5)"/>
<path d="M0 0 C0.98226562 -0.01224609 1.96453125 -0.02449219 2.9765625 -0.03710938 C13.05813361 -0.05700721 22.35139731 1.69190202 31.875 4.9375 C32.65190186 5.20208008 33.42880371 5.46666016 34.22924805 5.73925781 C55.08335012 13.06044804 70.771203 27.3377744 81.875 46.1875 C82.38289062 47.04472656 82.89078125 47.90195312 83.4140625 48.78515625 C93.5434774 67.39717934 95.05917104 92.28479163 89.15625 112.41796875 C83.02087738 130.46868393 83.02087738 130.46868393 79.875 135.1875 C75.89989967 134.59836447 73.06802975 133.36704805 69.61328125 131.3359375 C68.59041016 130.73974609 67.56753906 130.14355469 66.51367188 129.52929688 C65.41603516 128.88025391 64.31839844 128.23121094 63.1875 127.5625 C62.02583078 126.88271082 60.86371307 126.20368752 59.70117188 125.52539062 C57.28682554 124.11591697 54.87444078 122.70317013 52.46337891 121.28808594 C46.95181417 118.05694479 41.4120062 114.87477005 35.875 111.6875 C33.70820035 110.43773053 31.5415341 109.18772976 29.375 107.9375 C28.3025 107.31875 27.23 106.7 26.125 106.0625 C14.20833333 99.1875 2.29166667 92.3125 -9.625 85.4375 C-10.69935303 84.81770264 -11.77370605 84.19790527 -12.88061523 83.55932617 C-15.02864046 82.32003733 -17.17659075 81.08061859 -19.32446289 79.84106445 C-24.41155549 76.90547433 -29.49941847 73.97124328 -34.5899353 71.04159546 C-37.00043748 69.65421905 -39.41051376 68.26610376 -41.82055664 66.87792969 C-43.52643968 65.89576185 -45.23293986 64.91466615 -46.93945312 63.93359375 C-47.96876953 63.340625 -48.99808594 62.74765625 -50.05859375 62.13671875 C-50.96665771 61.61424561 -51.87472168 61.09177246 -52.81030273 60.5534668 C-54.61626201 59.48772034 -56.38021129 58.35069248 -58.125 57.1875 C-61.43110633 57.55886269 -63.93926321 59.09423903 -66.765625 60.77734375 C-67.66249023 61.30884033 -68.55935547 61.84033691 -69.48339844 62.38793945 C-70.43762695 62.96116943 -71.39185547 63.53439941 -72.375 64.125 C-73.36790039 64.71692139 -74.36080078 65.30884277 -75.38378906 65.91870117 C-82.20821881 70.00068036 -88.97238234 74.16996207 -95.69921875 78.41015625 C-101.33725245 81.95924485 -107.01334261 85.44656897 -112.6875 88.9375 C-113.8010083 89.62271729 -114.9145166 90.30793457 -116.06176758 91.01391602 C-124.31755163 96.08867064 -132.59698444 101.12366166 -140.88354492 106.14794922 C-148.13069191 110.55371501 -155.3112891 115.05896229 -162.45288086 119.63378906 C-163.18772705 120.10268555 -163.92257324 120.57158203 -164.6796875 121.0546875 C-165.32405762 121.46831543 -165.96842773 121.88194336 -166.63232422 122.30810547 C-168.125 123.1875 -168.125 123.1875 -169.125 123.1875 C-169.19853651 121.61331008 -169.27127507 120.0390829 -169.34375 118.46484375 C-169.39088135 117.45856934 -169.4380127 116.45229492 -169.48657227 115.41552734 C-169.57937816 113.20946419 -169.65520321 111.00262551 -169.71459961 108.79541016 C-169.90186347 101.71596091 -169.90186347 101.71596091 -171.03515625 94.74609375 C-171.80952371 90.37346793 -171.96586731 88.26201609 -170.125 84.1875 C-164.22324035 78.86549878 -156.74819455 75.54449404 -149.70117188 72.01611328 C-144.30928204 69.29498464 -139.10975017 66.23625641 -133.88726807 63.20672607 C-131.52375005 61.83976084 -129.15131713 60.48869426 -126.77871704 59.13757324 C-118.83923876 54.6154268 -110.94474957 50.01757591 -103.05810547 45.40405273 C-94.72692193 40.53212449 -86.37405485 35.69859925 -78.0090332 30.88500977 C-72.95097638 27.97415174 -67.89609535 25.05849432 -62.8572998 22.11442566 C-61.1016076 21.08890267 -59.34468751 20.06551517 -57.58740234 19.04272461 C-55.39389327 17.76514654 -53.20263641 16.48368995 -51.01416016 15.19750977 C-42.11247497 10.02355709 -33.27632921 5.43878298 -23.25 2.9375 C-22.01507812 2.62296875 -20.78015625 2.3084375 -19.5078125 1.984375 C-12.85327903 0.41679437 -6.82765487 0.0043767 0 0 Z " fill="#0FA982" transform="translate(613.125,303.8125)"/>
<path d="M0 0 C3.47953075 1.31260033 6.62361333 2.84039734 9.82421875 4.73046875 C10.75669434 5.27823975 11.68916992 5.82601074 12.64990234 6.39038086 C14.15351318 7.27995483 14.15351318 7.27995483 15.6875 8.1875 C17.86033348 9.46412666 20.03352265 10.7401481 22.20703125 12.015625 C23.89046631 13.0046582 23.89046631 13.0046582 25.60791016 14.01367188 C31.01565848 17.18032225 36.44460831 20.30988759 41.875 23.4375 C42.95354248 24.05906982 44.03208496 24.68063965 45.14331055 25.32104492 C47.33469138 26.5838442 49.52617907 27.84645807 51.71777344 29.10888672 C58.22871257 32.86028024 64.73663194 36.61690994 71.24511719 40.37255859 C76.68585336 43.51182246 82.12731477 46.64981497 87.5703125 49.78515625 C99.45791858 56.63472792 111.33041168 63.50891959 123.17431641 70.43383789 C124.98310893 71.49119625 126.79384155 72.54524613 128.60693359 73.59521484 C130.11290446 74.47925446 131.60751575 75.38323727 133.08447266 76.31494141 C136.26844924 78.44205431 136.26844924 78.44205431 139.93774414 78.74511719 C142.19984256 77.92779454 144.03583924 76.90499153 146.0703125 75.62109375 C146.87065918 75.12037354 147.67100586 74.61965332 148.49560547 74.10375977 C149.36330566 73.55389404 150.23100586 73.00402832 151.125 72.4375 C153.0257382 71.24691122 154.9267944 70.05683 156.828125 68.8671875 C158.33536133 67.92117676 158.33536133 67.92117676 159.87304688 66.95605469 C165.1897738 63.63019459 170.53259022 60.3468891 175.875 57.0625 C176.96917236 56.38912598 178.06334473 55.71575195 179.19067383 55.02197266 C186.38507539 50.59750317 193.59422876 46.19789622 200.8125 41.8125 C208.2445219 37.29556117 215.66459611 32.76014105 223.0625 28.1875 C223.92568848 27.65398926 224.78887695 27.12047852 225.67822266 26.57080078 C232.00831464 22.64485015 238.26591757 18.61789314 244.48046875 14.51171875 C247 13 247 13 249 13 C250.15136362 21.18646731 250.11414983 29.31509354 250.0625 37.5625 C250.05747366 38.96679527 250.05291276 40.3710923 250.04882812 41.77539062 C250.03711593 45.18363903 250.02071372 48.5917964 250 52 C249.27111572 52.40202637 248.54223145 52.80405273 247.79125977 53.21826172 C230.03145436 63.00263526 230.03145436 63.00263526 212.484375 73.16088867 C206.20805169 76.89048475 199.88862258 80.54308814 193.5625 84.1875 C192.45511475 84.82558594 191.34772949 85.46367188 190.20678711 86.12109375 C187.93630921 87.42906691 185.665719 88.73684513 183.39501953 90.04443359 C179.00467004 92.57332036 174.61602984 95.10516169 170.2277832 97.63769531 C168.0769797 98.87862483 165.92577544 100.11886001 163.77416992 101.35839844 C158.2238859 104.5567962 152.68074577 107.76668928 147.1484375 110.99609375 C116.53461493 128.84118279 88.18383883 142.42766518 52 133 C26.69432349 125.27242764 8.60815529 109.01889348 -4.01757812 86.1574707 C-10.5594288 73.78062186 -12.45421395 59.78049628 -12.5 45.9375 C-12.50612305 44.92824463 -12.51224609 43.91898926 -12.51855469 42.87915039 C-12.39644835 35.58090249 -11.04471519 28.99098453 -9 22 C-8.78553223 21.26177002 -8.57106445 20.52354004 -8.35009766 19.76293945 C-6.24197768 12.79716546 -4.0242542 6.11090453 0 0 Z " fill="#0FA982" transform="translate(287,540)"/>
<path d="M0 0 C11.10072874 5.4831325 22.08160031 11.16243977 33 17 C33.1173021 37.25516057 33.20521608 57.51025129 33.25906086 77.76568222 C33.28473718 87.17268037 33.31968293 96.57946629 33.37719727 105.98632812 C33.42735875 114.19456141 33.45936762 122.40264086 33.47044247 130.61102319 C33.47690642 134.94902383 33.49187164 139.28658473 33.52865028 143.62444305 C33.87873916 186.58695442 33.87873916 186.58695442 23.25 205.0625 C22.82243408 205.84069092 22.39486816 206.61888184 21.9543457 207.4206543 C18.29024426 213.90319147 14.00027352 219.47760957 9 225 C8.1828415 226.05892138 7.36954283 227.12084899 6.5625 228.1875 C-6.07528715 242.05824199 -27.82798099 253.62982718 -46.77783203 255.23535156 C-74.90221343 256.48372743 -97.39424411 249.43462633 -118.64453125 230.6640625 C-125.08513191 224.5499439 -130.53768923 217.68509077 -135 210 C-135 209.01 -135 208.02 -135 207 C-133.99755249 206.4423999 -133.99755249 206.4423999 -132.97485352 205.87353516 C-116.19311466 196.5341651 -116.19311466 196.5341651 -99.5859375 186.88989258 C-93.27328523 183.14775591 -86.92096234 179.47618322 -80.5625 175.8125 C-79.45527588 175.17449463 -78.34805176 174.53648926 -77.20727539 173.87915039 C-74.93662932 172.57110523 -72.66587642 171.26324552 -70.39501953 169.95556641 C-63.85321562 166.18741961 -57.31487868 162.41326041 -50.77636719 158.6394043 C-45.22427061 155.43533648 -39.6703608 152.23448128 -34.11328125 149.0390625 C-31.84625229 147.73455203 -29.57932355 146.42986738 -27.3125 145.125 C-26.22904297 144.50165771 -25.14558594 143.87831543 -24.02929688 143.23608398 C-17.36074932 139.39015037 -10.72612014 135.49542782 -4.18481445 131.43603516 C-0.21145814 129 -0.21145814 129 2 129 C1.96241577 127.50498459 1.96241577 127.50498459 1.92407227 125.97976685 C1.68315019 116.3686198 1.44794458 106.75734579 1.21769714 97.14593697 C1.09929123 92.21017673 0.97918426 87.27447293 0.85449219 82.33886719 C0.16259733 54.88706114 -0.13951439 27.46045679 0 0 Z " fill="#0FA982" transform="translate(568,482)"/>
<path d="M0 0 C0.33 52.8 0.66 105.6 1 160 C11.56 165.61 22.12 171.22 33 177 C39.44701881 180.50381457 45.89087724 184.01093365 52.32519531 187.53759766 C57.16746824 190.18502508 62.02159224 192.81055883 66.875 195.4375 C67.86322754 195.97286377 68.85145508 196.50822754 69.86962891 197.05981445 C75.07627939 199.87969575 80.28612895 202.69349046 85.5 205.5 C86.56750488 206.07564697 87.63500977 206.65129395 88.73486328 207.24438477 C90.75823219 208.33535533 92.78257335 209.42452559 94.80810547 210.51147461 C100.97822468 213.84106528 107.01984341 217.34022219 113 221 C109.66506892 223.75939746 106.29298154 226.15104059 102.5859375 228.3828125 C101.57789063 228.99253906 100.56984375 229.60226562 99.53125 230.23046875 C98.4896875 230.85566406 97.448125 231.48085938 96.375 232.125 C94.29918622 233.37711863 92.22365258 234.62970185 90.1484375 235.8828125 C88.77437744 236.70869873 88.77437744 236.70869873 87.37255859 237.55126953 C85.55631814 238.66030131 83.77066106 239.81955929 82 241 C77.99220955 240.66875361 75.10049668 239.12710793 71.66796875 237.11328125 C70.63494629 236.51201416 69.60192383 235.91074707 68.53759766 235.29125977 C66.87929932 234.31177368 66.87929932 234.31177368 65.1875 233.3125 C64.0191112 232.62945297 62.85032203 231.94709039 61.68115234 231.26538086 C58.6876978 229.51802201 55.69888235 227.7628931 52.71124268 226.00561523 C48.18843279 223.34777682 43.65565106 220.70693953 39.125 218.0625 C38.15457764 217.4950708 37.18415527 216.9276416 36.18432617 216.34301758 C28.48386922 211.84652434 20.7472551 207.41510521 13 203 C3.28793 197.46516085 -6.4004221 191.89250376 -16.03613281 186.2253418 C-21.27552979 183.14861744 -26.53979745 180.1300055 -31.8515625 177.1796875 C-43.39448898 170.73544212 -53.99812472 164.78272534 -63 155 C-63.85980469 154.1440625 -64.71960938 153.288125 -65.60546875 152.40625 C-76.25866032 141.44683961 -83.10269706 128.36228265 -88 114 C-88.3403125 113.03707031 -88.680625 112.07414062 -89.03125 111.08203125 C-95.6278329 88.45208713 -90.83193017 64.13325934 -80.01708984 43.79736328 C-77.76137447 39.81114711 -75.04350963 36.40196743 -72 33 C-71.41992188 32.27941406 -70.83984375 31.55882812 -70.2421875 30.81640625 C-52.81099451 9.7749871 -26.66183603 0 0 0 Z " fill="#0FA982" transform="translate(345,340)"/>
<path d="M0 0 C1.05646729 0.4650293 1.05646729 0.4650293 2.13427734 0.93945312 C12.06237551 5.43033834 20.04268613 11.62730511 28 19 C28.77214844 19.70253906 29.54429687 20.40507812 30.33984375 21.12890625 C35.20118836 25.74765017 39.97681621 30.97412858 43 37 C42.90380859 38.93334961 42.90380859 38.93334961 42 41 C39.72875977 42.68481445 39.72875977 42.68481445 36.69140625 44.36328125 C35.56508789 44.99508301 34.43876953 45.62688477 33.27832031 46.27783203 C32.03974628 46.95611448 30.80113862 47.63433552 29.5625 48.3125 C28.28792956 49.02313059 27.01417609 49.73522829 25.74121094 50.44873047 C23.11613502 51.91911896 20.48808397 53.38396671 17.85791016 54.84521484 C12.11863639 58.04156645 6.43488688 61.33304279 0.75 64.625 C-0.31935791 65.2422998 -1.38871582 65.85959961 -2.49047852 66.49560547 C-9.6321118 70.62000562 -16.75611167 74.77400034 -23.875 78.9375 C-33.13804427 84.35501462 -42.44414926 89.69411362 -51.76730347 95.00714111 C-71.38031612 106.07240054 -71.38031612 106.07240054 -90.67211914 117.67456055 C-93 119 -93 119 -95 119 C-94.96241577 119.87868744 -94.92483154 120.75737488 -94.8861084 121.66268921 C-94.40801994 132.8994845 -93.94701567 144.13692545 -93.5 155.375 C-93.46436825 156.2705019 -93.4287365 157.1660038 -93.39202499 158.08864212 C-92.20519754 188.07554569 -91.5717072 217.98655838 -92 248 C-94.31395351 246.85703777 -96.6260983 245.7106047 -98.9375 244.5625 C-99.55818359 244.25634766 -100.17886719 243.95019531 -100.81835938 243.63476562 C-108.9613758 239.58292653 -116.97034009 235.27053141 -125 231 C-125.07018694 210.32859359 -125.12303556 189.65720692 -125.15543652 168.98570538 C-125.17088299 159.38683264 -125.19192995 149.78803409 -125.22631836 140.18920898 C-125.25628881 131.81955422 -125.27559113 123.44995321 -125.28226548 115.08024627 C-125.28616482 110.65155589 -125.29528223 106.22301923 -125.31719017 101.79437828 C-125.33767631 97.61900054 -125.3438095 93.44383868 -125.33932304 89.26841545 C-125.34014285 87.74270705 -125.34603591 86.21699081 -125.35761642 84.69132614 C-125.42018032 76.01746154 -124.79505734 68.26989931 -122 60 C-121.71898437 58.96488281 -121.43796875 57.92976563 -121.1484375 56.86328125 C-113.53072002 31.74020289 -95.0311807 12.71368982 -72.25390625 0.53125 C-69.5410621 -0.79090881 -66.8197173 -1.92491104 -64 -3 C-62.99839844 -3.39316406 -61.99679687 -3.78632813 -60.96484375 -4.19140625 C-40.97339748 -10.77871403 -18.94287983 -8.51714381 0 0 Z " fill="#0FA982" transform="translate(504,250)"/>
<path d="M0 0 C2.88309424 0.82434629 5.16409753 1.95007064 7.7722168 3.42822266 C8.76020264 3.98437256 9.74818848 4.54052246 10.76611328 5.11352539 C11.82386963 5.7188208 12.88162598 6.32411621 13.97143555 6.94775391 C15.08010986 7.57560791 16.18878418 8.20346191 17.33105469 8.8503418 C26.78859213 14.22219089 36.18595206 19.69721369 45.5690918 25.19775391 C51.87463974 28.89238701 58.20187991 32.54878072 64.53393555 36.19775391 C66.15416626 37.13155884 66.15416626 37.13155884 67.80712891 38.08422852 C69.99689889 39.34602217 72.1867591 40.60765924 74.37670898 41.86914062 C77.64067882 43.74973497 80.90387743 45.63165936 84.16674805 47.51416016 C85.23932861 48.13282959 86.31190918 48.75149902 87.41699219 49.38891602 C89.57053038 50.63199684 91.72336822 51.87629179 93.87548828 53.12182617 C98.87621678 56.01383654 103.88246947 58.89393987 108.91757202 61.72564697 C110.67763632 62.71632657 112.43521559 63.71128136 114.19213867 64.70751953 C116.38006739 65.94646712 118.57244224 67.17761332 120.77026367 68.39892578 C128.02876242 72.52466206 134.37213052 77.27325907 140.65893555 82.76025391 C141.23538818 83.26202148 141.81184082 83.76378906 142.40576172 84.28076172 C158.54473566 98.77108595 170.14107422 120.83483292 171.88354492 142.56079102 C172.84902839 167.39446558 167.49644984 191.23909171 150.22143555 210.07275391 C134.84507036 226.32006628 115.80479777 236.99545733 93.65893555 240.76025391 C89.36893555 240.76025391 85.07893555 240.76025391 80.65893555 240.76025391 C80.65893555 187.63025391 80.65893555 134.50025391 80.65893555 79.76025391 C79.00893555 79.43025391 77.35893555 79.10025391 75.65893555 78.76025391 C73.3449707 77.75146484 73.3449707 77.75146484 70.94799805 76.49462891 C70.04500977 76.02347656 69.14202148 75.55232422 68.21166992 75.06689453 C67.24551758 74.55320312 66.27936523 74.03951172 65.28393555 73.51025391 C64.26879883 72.9759375 63.25366211 72.44162109 62.20776367 71.89111328 C54.14731025 67.61971939 46.20983531 63.14703507 38.29052734 58.62084961 C30.69636441 54.29835541 22.99123337 50.22704535 15.22900391 46.21606445 C-0.48622234 38.08537059 -15.95238053 29.49079665 -31.34106445 20.76025391 C-31.34106445 19.77025391 -31.34106445 18.78025391 -31.34106445 17.76025391 C-29.32495117 16.19799805 -29.32495117 16.19799805 -26.52075195 14.54541016 C-25.51012695 13.94148438 -24.49950195 13.33755859 -23.45825195 12.71533203 C-22.38833008 12.09078125 -21.3184082 11.46623047 -20.21606445 10.82275391 C-18.12952944 9.58547975 -16.04357515 8.34722565 -13.95825195 7.10791016 C-12.97308594 6.53057129 -11.98791992 5.95323242 -10.97290039 5.35839844 C-8.85650601 4.07324838 -6.89261887 2.7330773 -4.91137695 1.25634766 C-2.34106445 -0.23974609 -2.34106445 -0.23974609 0 0 Z " fill="#0FA982" transform="translate(554.341064453125,399.23974609375)"/>
<path d="M0 0 C3.08905229 0.94788985 5.56444043 2.27880473 8.35131836 3.91625977 C9.44508789 4.55370117 10.53885742 5.19114258 11.66577148 5.84790039 C12.80079102 6.51885742 13.93581055 7.18981445 15.10522461 7.88110352 C17.33289569 9.18481963 19.56076119 10.48820359 21.78881836 11.79125977 C22.8998291 12.44368652 24.01083984 13.09611328 25.15551758 13.76831055 C30.9637055 17.16905563 36.81765378 20.49061969 42.66772461 23.81860352 C42.89622257 30.97129794 43.05364867 38.12304999 43.16210938 45.27856445 C43.20732653 47.71153937 43.26871373 50.14427029 43.34667969 52.57641602 C43.4560738 56.07702768 43.50693695 59.57440518 43.54663086 63.07641602 C43.59308243 64.16101105 43.639534 65.24560608 43.68739319 66.36306763 C43.69231009 73.74519566 43.69231009 73.74519566 40.81748962 76.75700378 C38.50105935 78.32926181 36.18498937 79.59802238 33.66772461 80.81860352 C32.61512451 81.44130127 31.56252441 82.06399902 30.47802734 82.70556641 C29.52871338 83.22884521 28.57939941 83.75212402 27.60131836 84.29125977 C26.53848633 84.88100586 25.4756543 85.47075195 24.38061523 86.07836914 C23.29973633 86.67327148 22.21885742 87.26817383 21.10522461 87.88110352 C18.93618858 89.07839078 16.76819581 90.27757026 14.60131836 91.47875977 C13.57893066 92.04095215 12.55654297 92.60314453 11.50317383 93.18237305 C8.37524769 94.98738088 5.44426725 96.98426579 2.56640625 99.1640625 C-0.4852971 100.21608985 -2.42747577 99.04121325 -5.33227539 97.81860352 C-7.29796509 96.80397826 -9.23639677 95.73530134 -11.14868164 94.62329102 C-12.24374023 93.98907227 -13.33879883 93.35485352 -14.46704102 92.70141602 C-15.59819336 92.03883789 -16.7293457 91.37625977 -17.89477539 90.69360352 C-18.99885742 90.05422852 -20.10293945 89.41485352 -21.24047852 88.75610352 C-23.48540883 87.45082004 -25.71373373 86.11658302 -27.92504883 84.75512695 C-31.29209459 82.72622228 -31.29209459 82.72622228 -35.01293945 81.42114258 C-39.14812666 79.64016297 -41.44757005 78.30668403 -44.33227539 74.81860352 C-46.48575007 67.87064875 -46.19975575 60.49066925 -46.02709961 53.29223633 C-45.9573471 49.82217069 -46.02640499 46.37393113 -46.10961914 42.90454102 C-46.18130644 27.06021017 -46.18130644 27.06021017 -41.80249023 21.75170898 C-38.39816436 19.63374855 -35.0785206 18.23588756 -31.33227539 16.81860352 C-29.02641421 15.52638288 -26.74196623 14.19519769 -24.48071289 12.82641602 C-22.22402428 11.53018657 -19.96621119 10.23591281 -17.70727539 8.94360352 C-15.42266217 7.63502183 -13.13903116 6.32475918 -10.85571289 5.01391602 C-9.86490723 4.44688965 -8.87410156 3.87986328 -7.85327148 3.2956543 C-1.96718628 -0.15300109 -1.96718628 -0.15300109 0 0 Z " fill="#10A983" transform="translate(490.332275390625,440.181396484375)"/>
<path d="M0 0 C0.66 0.33 1.32 0.66 2 1 C-3.61 6.61 -9.22 12.22 -15 18 C-15.66 17.67 -16.32 17.34 -17 17 C-15.29657414 15.09955869 -13.58752883 13.20471126 -11.875 11.3125 C-11.400625 10.78205078 -10.92625 10.25160156 -10.4375 9.70507812 C-7.18500869 6.12294242 -3.77952775 3.02250068 0 0 Z " fill="#30B593" transform="translate(287,359)"/>
<path d="M0 0 C0.99 0.33 1.98 0.66 3 1 C2.34 1.66 1.68 2.32 1 3 C0.53513282 6.12196336 0.53513282 6.12196336 0.375 9.625 C0.30023438 10.81351562 0.22546875 12.00203125 0.1484375 13.2265625 C0.09945313 14.14179688 0.05046875 15.05703125 0 16 C-0.33 16 -0.66 16 -1 16 C-1.02685095 13.52076199 -1.04676547 11.0418116 -1.0625 8.5625 C-1.07506836 7.50192383 -1.07506836 7.50192383 -1.08789062 6.41992188 C-1.09653588 4.61306441 -1.05220011 2.80612397 -1 1 C-0.67 0.67 -0.34 0.34 0 0 Z " fill="#37B797" transform="translate(444,387)"/>
</svg>
