<?xml version="1.0" encoding="UTF-8"?>
<svg version="1.1" xmlns="http://www.w3.org/2000/svg" width="300" height="300">
<path d="M0 0 C1.30928467 0.00491455 2.61856934 0.0098291 3.9675293 0.01489258 C14.3256581 0.13935096 24.22637943 0.93819544 34.3125 3.3125 C35.02083984 3.47878906 35.72917969 3.64507812 36.45898438 3.81640625 C75.1222782 13.29786795 108.44697638 38.63399929 129.3125 72.3125 C143.54897817 96.19765774 150.75001284 122.13663072 150.625 150 C150.62008545 151.30928467 150.6151709 152.61856934 150.61010742 153.9675293 C150.48564904 164.3256581 149.68680456 174.22637943 147.3125 184.3125 C147.14621094 185.02083984 146.97992188 185.72917969 146.80859375 186.45898438 C137.32713205 225.1222782 111.99100071 258.44697638 78.3125 279.3125 C54.42734226 293.54897817 28.48836928 300.75001284 0.625 300.625 C-0.68428467 300.62008545 -1.99356934 300.6151709 -3.3425293 300.61010742 C-13.7006581 300.48564904 -23.60137943 299.68680456 -33.6875 297.3125 C-34.39583984 297.14621094 -35.10417969 296.97992188 -35.83398438 296.80859375 C-74.4972782 287.32713205 -107.82197638 261.99100071 -128.6875 228.3125 C-142.92397817 204.42734226 -150.12501284 178.48836928 -150 150.625 C-149.99262817 148.661073 -149.99262817 148.661073 -149.98510742 146.6574707 C-149.86064904 136.2993419 -149.06180456 126.39862057 -146.6875 116.3125 C-146.43806641 115.24999023 -146.43806641 115.24999023 -146.18359375 114.16601562 C-136.70213205 75.5027218 -111.36600071 42.17802362 -77.6875 21.3125 C-53.80234226 7.07602183 -27.86336928 -0.12501284 0 0 Z " fill="#4378A0" transform="translate(149.6875,-0.3125)"/>
<path d="M0 0 C4.50568428 2.09747372 7.29368169 4.84386831 10 9 C13.45411052 19.17662668 13.5438632 31.11377045 9 41 C6.8125 44.125 6.8125 44.125 5 46 C7.64 47.65 10.28 49.3 13 51 C12.01 52.98 11.02 54.96 10 57 C9.36835938 56.57847656 8.73671875 56.15695313 8.0859375 55.72265625 C1.35769507 51.60233488 -3.85906988 50.32773408 -11.73828125 50.30078125 C-16.49845633 49.861819 -19.77648355 48.18855884 -23.1875 44.875 C-28.75886048 36.03766958 -29.25985976 26.2759343 -27.49609375 16.08984375 C-25.76718198 9.539738 -23.23261896 4.93309689 -17.26953125 1.3671875 C-11.64660581 -0.98409554 -5.98775567 -0.64002139 0 0 Z " fill="#E7882B" transform="translate(198,146)"/>
<path d="M0 0 C3.63 0 7.26 0 11 0 C14.63 11.22 18.26 22.44 22 34 C25.24799446 25.92918128 25.24799446 25.92918128 28.140625 17.7734375 C28.66269531 16.19755859 28.66269531 16.19755859 29.1953125 14.58984375 C29.71738281 12.99849609 29.71738281 12.99849609 30.25 11.375 C30.61351562 10.27542969 30.97703125 9.17585937 31.3515625 8.04296875 C32.23715202 5.3628952 33.1189717 2.68157644 34 0 C37.63 0 41.26 0 45 0 C45.4350785 4.86994785 45.86191467 9.74052972 46.28173828 14.61181641 C46.42508569 16.26239608 46.57052765 17.91279545 46.71826172 19.56298828 C47.62816325 29.74521969 48.22491987 39.76822854 48 50 C45.36 50 42.72 50 40 50 C39.01 37.79 38.02 25.58 37 13 C33.04 25.21 29.08 37.42 25 50 C22.69 50 20.38 50 18 50 C14.04 37.46 10.08 24.92 6 12 C5.34 24.54 4.68 37.08 4 50 C1.36 50 -1.28 50 -4 50 C-3.76048239 44.96820472 -3.51185323 39.93696501 -3.25537109 34.90600586 C-3.169633 33.20039588 -3.08623262 31.49466649 -3.00537109 29.78881836 C-2.52607884 19.71480532 -1.74704156 9.9463921 0 0 Z " fill="#FBFCFD" transform="translate(46,146)"/>
<path d="M0 0 C3.48298626 0.81269679 5.69433748 1.9685041 8.68359375 3.84765625 C11.24309753 5.12015057 13.70328655 5.60650533 16.5 6.1875 C30.06011573 9.34022691 39.8091752 19.0471147 46.99609375 30.54296875 C48.36513054 33.14383374 49.44346548 35.56690268 50.47265625 38.30078125 C54.3406465 48.4330748 57.30796386 53.72575207 67.3828125 58.26953125 C72.29770313 60.61294198 76.78062393 63.5576846 78.75 68.875 C70.32142857 71.16071429 70.32142857 71.16071429 65.75 70.875 C68.81087931 74.19095259 72.20796729 76.77644658 75.84765625 79.41015625 C77.63834122 80.78902044 79.19318608 82.24058787 80.75 83.875 C80.42 84.535 80.09 85.195 79.75 85.875 C62.39676617 75.84710668 62.39676617 75.84710668 61.03515625 71.6953125 C60.94105469 71.09460938 60.84695312 70.49390625 60.75 69.875 C64.75 68.54166667 68.75 67.20833333 72.75 65.875 C71.46745222 64.94561755 70.17319906 64.03239173 68.875 63.125 C67.79605469 62.35929687 67.79605469 62.35929687 66.6953125 61.578125 C63.94444567 59.82841297 63.94444567 59.82841297 61.41357422 59.20556641 C57.25910877 57.96632376 54.53725314 56.96763651 51.94873047 53.375 C50.35235073 50.21405523 48.95778472 47.03070085 47.625 43.75 C41.36397515 28.91294951 33.19978341 16.90094323 17.85546875 10.5625 C15.58863653 9.74406251 15.58863653 9.74406251 12.4375 9.5 C6.68021539 8.52418905 1.85936836 5.61845395 -3.25 2.875 C-2.04640191 6.84687371 -0.64633694 10.09665166 1.625 13.5625 C4.43580663 18.08035748 6.25463579 22.57352455 7.890625 27.625 C8.63435106 30.03152805 8.63435106 30.03152805 10.75 31.875 C11.08333333 37.20833333 11.08333333 37.20833333 9.75 39.875 C9.00277514 49.89165053 9.00277514 49.89165053 12.75 58.875 C12.93175781 58.17632812 13.11351562 57.47765625 13.30078125 56.7578125 C13.55214844 55.84773438 13.80351562 54.93765625 14.0625 54 C14.30613281 53.09507813 14.54976562 52.19015625 14.80078125 51.2578125 C15.75 48.875 15.75 48.875 18.75 46.875 C19.34167969 48.03257813 19.93335938 49.19015625 20.54296875 50.3828125 C21.34075784 51.92207616 22.13895676 53.46112745 22.9375 55 C23.32486328 55.76054688 23.71222656 56.52109375 24.11132812 57.3046875 C26.56575086 62.01068812 29.19885156 65.92647615 32.75 69.875 C26.53767439 67.10334703 21.84282901 61.8787269 18.75 55.875 C17.76 58.185 16.77 60.495 15.75 62.875 C13.5 62.75 13.5 62.75 10.75 61.875 C5.43980053 55.08974512 5.22844278 49.21991546 5.75 40.875 C6.183125 39.6375 6.61625 38.4 7.0625 37.125 C8.05167212 34.05161688 8.05167212 34.05161688 6.91015625 32.0625 C6.02551388 30.72881424 5.113484 29.41302503 4.1796875 28.11328125 C2.56458511 25.58471931 1.69180491 23.15737352 0.75 20.3125 C-0.45007426 16.75162391 -1.67475753 14.01477415 -4 11.0625 C-6.25 7.875 -6.25 7.875 -6.75 4.5625 C-6.585 3.675625 -6.42 2.78875 -6.25 1.875 C-3.25 -0.125 -3.25 -0.125 0 0 Z " fill="#F3F6F9" transform="translate(176.25,62.125)"/>
<path d="M0 0 C3.9420457 2.32479618 5.19696662 6.13618586 6.45703125 10.3828125 C8.30749567 19.30231725 7.32687608 27.92509414 3 36 C-1.22555442 38.81703628 -5.04013513 38.91761455 -10 38 C-13.54449106 35.53565859 -15.20907608 32.1765122 -16 28 C-16.23921749 24.8778493 -16.23091189 21.75544977 -16.25 18.625 C-16.270625 17.78710938 -16.29125 16.94921875 -16.3125 16.0859375 C-16.35052234 10.04038593 -15.30756845 6.09201098 -11.62109375 1.15234375 C-8.24480757 -1.24766691 -3.92966207 -0.55584036 0 0 Z " fill="#4278A1" transform="translate(195,152)"/>
<path d="M0 0 C2.97 0 5.94 0 9 0 C9.23710693 0.78238037 9.47421387 1.56476074 9.71850586 2.37084961 C10.78823688 5.8940681 11.86280096 9.41579391 12.9375 12.9375 C13.31068359 14.16919922 13.68386719 15.40089844 14.06835938 16.66992188 C14.42607422 17.83974609 14.78378906 19.00957031 15.15234375 20.21484375 C15.48226318 21.29886475 15.81218262 22.38288574 16.15209961 23.49975586 C16.76455912 25.9120764 16.76455912 25.9120764 18 27 C20.31460464 18.04495196 22.52814886 9.14097026 24 0 C26.64 0 29.28 0 32 0 C30.19553246 16.85449471 25.56212282 34.17154944 14 47 C9.55464669 49.89914347 6.26188885 50.31571333 1 50 C0.67 48.35 0.34 46.7 0 45 C0.63808594 44.79503906 1.27617188 44.59007812 1.93359375 44.37890625 C2.75988281 44.10949219 3.58617188 43.84007812 4.4375 43.5625 C5.26121094 43.29566406 6.08492188 43.02882812 6.93359375 42.75390625 C8.96219588 42.17844506 8.96219588 42.17844506 10 41 C10.96112101 31.9594555 7.782624 23.8964902 5 15.4375 C4.51703607 13.93723252 4.0352547 12.4365838 3.5546875 10.93554688 C2.38339154 7.28582263 1.19617183 3.64164334 0 0 Z " fill="#F9FBFC" transform="translate(98,159)"/>
<path d="M0 0 C1.6328125 0.8203125 1.6328125 0.8203125 3.8203125 2.3203125 C3.1603125 3.6403125 2.5003125 4.9603125 1.8203125 6.3203125 C1.08425781 6.22492188 0.34820312 6.12953125 -0.41015625 6.03125 C-1.38597656 5.92039063 -2.36179688 5.80953125 -3.3671875 5.6953125 C-4.33011719 5.57929688 -5.29304688 5.46328125 -6.28515625 5.34375 C-9.47480245 5.31792291 -11.38558691 5.80210209 -14.1796875 7.3203125 C-15.52192364 10.12197343 -15.52192364 10.12197343 -15.1796875 13.3203125 C-11.72780819 18.3063604 -6.2731341 20.66757434 -1.01953125 23.4765625 C2.07240734 25.48398343 3.8468623 27.21189681 5.8203125 30.3203125 C6.73553505 34.65657384 6.84705511 39.26682728 4.83203125 43.296875 C2.56615664 46.14500222 0.19003472 48.04372832 -3.1796875 49.3203125 C-6.640625 49.62109375 -6.640625 49.62109375 -10.5546875 49.6328125 C-11.84117187 49.64957031 -13.12765625 49.66632813 -14.453125 49.68359375 C-18.37118204 49.30164479 -20.80970364 48.29743926 -24.1796875 46.3203125 C-23.8496875 44.6703125 -23.5196875 43.0203125 -23.1796875 41.3203125 C-22.13167969 41.56007813 -22.13167969 41.56007813 -21.0625 41.8046875 C-18.01650237 42.34950008 -15.14772744 42.52380062 -12.0546875 42.5703125 C-11.02085937 42.59609375 -9.98703125 42.621875 -8.921875 42.6484375 C-6.18036832 42.54107602 -6.18036832 42.54107602 -4.328125 41.01171875 C-2.89432437 39.20204036 -2.89432437 39.20204036 -2.9296875 36.0078125 C-4.76824157 30.58407798 -8.34643971 29.0442308 -13.1796875 26.3203125 C-22.44702685 20.97683801 -22.44702685 20.97683801 -24.1796875 16.3203125 C-24.71604649 11.49308158 -24.69986651 9.34140464 -22.4921875 5.0078125 C-16.71079847 -1.71109908 -8.33783693 -2.59997066 0 0 Z " fill="#E7882A" transform="translate(160.1796875,146.6796875)"/>
<path d="M0 0 C2.64 0 5.28 0 8 0 C8 14.52 8 29.04 8 44 C13.28 44 18.56 44 24 44 C24 45.98 24 47.96 24 50 C16.08 50 8.16 50 0 50 C0 33.5 0 17 0 0 Z " fill="#E7882A" transform="translate(217,146)"/>
<path d="M0 0 C3.45101522 4.24740335 6.73279209 8.61105071 10 13 C7.1394109 11.64062915 5.14072301 10.35479531 3 8 C2.443125 8.33 1.88625 8.66 1.3125 9 C-1.30284522 10.1309601 -3.1806646 10.15662974 -6 10 C-5.38125 9.835 -4.7625 9.67 -4.125 9.5 C-0.72243051 7.09818625 -0.77387974 3.99837866 0 0 Z " fill="#316B97" transform="translate(194,116)"/>
<path d="M0 0 C0.66 0 1.32 0 2 0 C0.87097172 2.25805656 -0.26930429 4.4671605 -1.53125 6.65625 C-3.19459299 10.44300958 -3.54952246 13.80663356 -3.6875 17.875 C-3.72166016 18.56335938 -3.75582031 19.25171875 -3.79101562 19.9609375 C-3.87264091 21.64008613 -3.9380157 23.32001168 -4 25 C-4.33 25 -4.66 25 -5 25 C-5.08144943 22.29105233 -5.14070614 19.58458737 -5.1875 16.875 C-5.21263672 16.11445313 -5.23777344 15.35390625 -5.26367188 14.5703125 C-5.3278713 9.60555693 -4.71270344 6.32193429 -2 2 C-1.34 1.34 -0.68 0.68 0 0 Z " fill="#3076AD" transform="translate(184,153)"/>
<path d="M0 0 C0.33 0 0.66 0 1 0 C1 4.29 1 8.58 1 13 C0.67 13 0.34 13 0 13 C0 11.35 0 9.7 0 8 C-0.66 8 -1.32 8 -2 8 C-1.125 2.25 -1.125 2.25 0 0 Z " fill="#316B97" transform="translate(83,157)"/>
<path d="M0 0 C0.66 0.33 1.32 0.66 2 1 C-0.31 3.64 -2.62 6.28 -5 9 C-5.33 8.01 -5.66 7.02 -6 6 C-2.83636364 1.41818182 -2.83636364 1.41818182 0 0 Z " fill="#EF8924" transform="translate(143,147)"/>
<path d="M0 0 C0.99 0.495 0.99 0.495 2 1 C2.40729228 3.32156597 2.74438677 5.6568787 3 8 C2.01 8 1.02 8 0 8 C0 5.36 0 2.72 0 0 Z " fill="#4F80A5" transform="translate(51,157)"/>
</svg>
