<svg width="60" height="48" viewBox="0 0 60 48" fill="none" xmlns="http://www.w3.org/2000/svg">
<g clip-path="url(#clip0_613_1646)">
<mask id="mask0_613_1646" style="mask-type:luminance" maskUnits="userSpaceOnUse" x="0" y="1" width="60" height="46">
<path d="M0.84375 24.0001C0.84375 36.5637 13.8978 46.7488 30.0001 46.7488C46.1023 46.7488 59.1565 36.5637 59.1565 24.0001C59.1565 11.4366 46.1023 1.25141 30.0001 1.25141C13.8978 1.25141 0.84375 11.4366 0.84375 24.0001Z" fill="white"/>
</mask>
<g mask="url(#mask0_613_1646)">
<path d="M0.84375 24.0001C0.84375 36.5637 13.8978 46.7488 30.0001 46.7488C46.1023 46.7488 59.1565 36.5637 59.1565 24.0001C59.1565 11.4366 46.1023 1.25141 30.0001 1.25141C13.8978 1.25141 0.84375 11.4366 0.84375 24.0001Z" fill="url(#paint0_radial_613_1646)"/>
</g>
<mask id="mask1_613_1646" style="mask-type:luminance" maskUnits="userSpaceOnUse" x="-1" y="-2" width="62" height="52">
<path d="M-0.371094 -1.33901H60.3712V49.3391H-0.371094V-1.33901Z" fill="white"/>
</mask>
<g mask="url(#mask1_613_1646)">
<path d="M30.0003 45.0598C45.4737 45.0598 58.0177 35.631 58.0177 24.0001C58.0177 12.3693 45.4737 2.94035 30.0003 2.94035C14.5269 2.94035 1.98291 12.3693 1.98291 24.0001C1.98291 35.631 14.5269 45.0598 30.0003 45.0598Z" fill="#777BB3"/>
</g>
<mask id="mask2_613_1646" style="mask-type:luminance" maskUnits="userSpaceOnUse" x="-1" y="-2" width="62" height="52">
<path d="M-0.371094 -1.33901H60.3712V49.3391H-0.371094V-1.33901Z" fill="white"/>
</mask>
<g mask="url(#mask2_613_1646)">
<path d="M16.6849 26.611C17.9572 26.611 18.907 26.2629 19.508 25.5769C20.1026 24.8979 20.5132 23.7215 20.7285 22.0806C20.9291 20.5468 20.8527 19.4758 20.5013 18.8979C20.142 18.3076 19.3652 18.0082 18.1926 18.0082H16.1593L15.0321 26.611H16.6849ZM10.0345 37.208C9.94016 37.208 9.85052 37.1454 9.79052 37.0372C9.73041 36.9291 9.70605 36.7868 9.72408 36.6493L12.7114 13.8518C12.7403 13.6314 12.8706 13.4722 13.022 13.4722H19.4605C21.4839 13.4722 22.9901 14.2871 23.9367 15.8946C24.8885 17.5105 25.1824 19.7693 24.8102 22.608C24.6588 23.7645 24.3983 24.8386 24.0361 25.8003C23.6734 26.763 23.1941 27.6538 22.6113 28.4484C21.9136 29.4169 21.1239 30.1192 20.2663 30.5324C19.4224 30.9402 18.3385 31.147 17.0449 31.147H14.4378L13.6933 36.8282C13.6644 37.0488 13.5343 37.208 13.3829 37.208H10.0345Z" fill="black"/>
<path d="M16.4201 18.4774H18.1926C19.6079 18.4774 20.0995 18.9381 20.2665 19.2126C20.5437 19.6684 20.596 20.6294 20.4179 21.9916C20.2177 23.5166 19.8467 24.5979 19.315 25.2051C18.7707 25.8267 17.8857 26.1417 16.6849 26.1417H15.4158L16.4201 18.4774ZM19.4604 13.0029H13.0219C12.719 13.0029 12.4586 13.3214 12.4008 13.7623L9.41349 36.5598C9.37743 36.835 9.42615 37.1195 9.54626 37.3358C9.66648 37.5521 9.84554 37.6772 10.0345 37.6772H13.3827C13.6857 37.6772 13.9461 37.3588 14.0039 36.9179L14.6986 31.6162H17.0449C18.3717 31.6162 19.4887 31.4016 20.3645 30.9785C21.2652 30.5445 22.0939 29.8085 22.8273 28.7912C23.4339 27.9635 23.9335 27.0344 24.3121 26.0294C24.6908 25.0241 24.9629 23.9031 25.1208 22.6975C25.5125 19.7093 25.1943 17.3165 24.1749 15.586C23.1655 13.872 21.5792 13.0029 19.4604 13.0029ZM14.6482 27.0802H16.6849C18.0348 27.0802 19.0403 26.7031 19.701 25.9487C20.3618 25.1942 20.8074 23.9349 21.039 22.1702C21.2606 20.4759 21.1596 19.2803 20.7362 18.5838C20.3123 17.8873 19.4646 17.5389 18.1926 17.5389H15.8985L14.6482 27.0802ZM19.4604 13.9414C21.3973 13.9414 22.8103 14.6953 23.6985 16.2033C24.5865 17.7113 24.854 19.8162 24.4996 22.5185C24.3538 23.6317 24.1071 24.6495 23.7599 25.5716C23.4122 26.4943 22.9582 27.338 22.3972 28.103C21.7286 29.031 20.9859 29.6923 20.1686 30.0862C19.3513 30.4811 18.3103 30.6777 17.0449 30.6777H14.1769L13.3827 36.7388H10.0345L13.0219 13.9414H19.4604Z" fill="white"/>
<path d="M32.4872 31.147C32.3927 31.147 32.3032 31.0844 32.2432 30.9762C32.183 30.8681 32.1586 30.7259 32.1767 30.5883L33.4981 20.5013C33.6238 19.542 33.5928 18.8535 33.4109 18.5625C33.2995 18.3847 32.965 18.0864 31.976 18.0864H29.5819L27.9205 30.7672C27.8916 30.9877 27.7613 31.147 27.6099 31.147H24.2881C24.1936 31.147 24.104 31.0844 24.0439 30.9762C23.9838 30.8681 23.9595 30.7257 23.9775 30.5883L26.9648 7.79077C26.9937 7.57038 27.124 7.41115 27.2754 7.41115H30.5972C30.6917 7.41115 30.7813 7.47372 30.8414 7.5818C30.9015 7.69004 30.9258 7.83222 30.9078 7.96987L30.1869 13.4722H32.7624C34.7244 13.4722 36.0548 13.9852 36.8297 15.0407C37.6195 16.1175 37.866 17.8391 37.5623 20.1584L36.1724 30.7672C36.1435 30.9877 36.0133 31.147 35.8618 31.147H32.4872Z" fill="black"/>
<path d="M30.5972 6.94191H27.2754C26.9724 6.94191 26.712 7.26037 26.6543 7.7013L23.6669 30.4988C23.6308 30.7739 23.6796 31.0584 23.7998 31.2748C23.92 31.4911 24.0991 31.6162 24.288 31.6162H27.6099C27.9128 31.6162 28.1732 31.2978 28.231 30.8568L29.8427 18.5556H31.976C32.9633 18.5556 33.1706 18.8685 33.1789 18.8819C33.2388 18.9775 33.3176 19.4201 33.1875 20.4118L31.8661 30.4988C31.83 30.7739 31.8787 31.0584 31.9989 31.2748C32.1192 31.4911 32.2982 31.6162 32.4872 31.6162H35.8618C36.1646 31.6162 36.4251 31.2978 36.4829 30.8568L37.8727 20.248C38.1989 17.7578 37.9198 15.8897 37.0437 14.6953C36.2077 13.5565 34.8072 13.0029 32.7623 13.0029H30.5705L31.2184 8.05949C31.2543 7.78436 31.2057 7.49968 31.0855 7.28352C30.9653 7.0672 30.7862 6.94191 30.5972 6.94191ZM30.5972 7.88039L29.803 13.9414H32.7623C34.6244 13.9414 35.9087 14.4235 36.6156 15.3864C37.3224 16.3499 37.5342 17.9111 37.2517 20.0691L35.8618 30.6777H32.4872L33.8087 20.5909C33.959 19.4435 33.9038 18.6608 33.6427 18.2434C33.3815 17.8261 32.8258 17.6172 31.976 17.6172H29.321L27.6099 30.6777H24.288L27.2754 7.88039H30.5972Z" fill="white"/>
<path d="M42.8182 26.611C44.0905 26.611 45.0403 26.2629 45.6413 25.5769C46.2359 24.8981 46.6465 23.7217 46.8618 22.0806C47.0625 20.5468 46.9861 19.4758 46.6346 18.8979C46.2753 18.3076 45.4985 18.0082 44.3259 18.0082H42.2926L41.1654 26.611H42.8182ZM36.1679 37.208C36.0736 37.208 35.9839 37.1454 35.9239 37.0372C35.8638 36.9291 35.8393 36.7868 35.8574 36.6493L38.8447 13.8518C38.8737 13.6314 39.0038 13.4722 39.1554 13.4722H45.5937C47.6173 13.4722 49.1233 14.2871 50.0701 15.8946C51.0219 17.5103 51.3157 19.7691 50.9436 22.608C50.792 23.7645 50.5316 24.8386 50.1694 25.8003C49.8067 26.763 49.3274 27.6538 48.7445 28.4484C48.0469 29.4169 47.2572 30.1192 46.3996 30.5324C45.5557 30.9402 44.4718 31.147 43.1782 31.147H40.571L39.8268 36.8282C39.7978 37.0488 39.6677 37.208 39.5161 37.208H36.1679Z" fill="black"/>
<path d="M42.5537 18.4774H44.3262C45.7415 18.4774 46.2332 18.9381 46.4002 19.2126C46.6775 19.6684 46.7298 20.6294 46.5516 21.9914C46.3514 23.5166 45.9803 24.5979 45.4487 25.2051C44.9043 25.8267 44.0194 26.1417 42.8185 26.1417H41.5496L42.5537 18.4774ZM45.5941 13.0029H39.1557C38.8528 13.0029 38.5924 13.3214 38.5346 13.7623L35.5473 36.5598C35.5112 36.835 35.5599 37.1195 35.6801 37.3358C35.8003 37.5521 35.9793 37.6772 36.1683 37.6772H39.5165C39.8194 37.6772 40.0799 37.3588 40.1377 36.9179L40.8323 31.6162H43.1786C44.5054 31.6162 45.6224 31.4016 46.4982 30.9785C47.3989 30.5445 48.2278 29.8084 48.9612 28.7909C49.5678 27.9633 50.0672 27.0344 50.4458 26.0294C50.8245 25.0241 51.0966 23.9031 51.2544 22.6975C51.6462 19.7092 51.3279 17.3164 50.3086 15.5858C49.2992 13.872 47.713 13.0029 45.5941 13.0029ZM40.782 27.0802H42.8185C44.1685 27.0802 45.174 26.7031 45.8347 25.9487C46.4956 25.1942 46.9411 23.9349 47.1727 22.1702C47.3944 20.4759 47.2934 19.2803 46.8699 18.5838C46.446 17.8873 45.5982 17.5389 44.3262 17.5389H42.0322L40.782 27.0802ZM45.5941 13.9414C47.531 13.9414 48.944 14.6953 49.8322 16.2033C50.7203 17.7113 50.9876 19.8162 50.6333 22.5185C50.4875 23.6317 50.2408 24.6495 49.8935 25.5716C49.5459 26.4943 49.0919 27.338 48.5308 28.103C47.8623 29.031 47.1195 29.6923 46.3023 30.0862C45.485 30.4811 44.444 30.6777 43.1786 30.6777H40.3106L39.5165 36.7388H36.1683L39.1557 13.9414H45.5941Z" fill="white"/>
</g>
</g>
<defs>
<radialGradient id="paint0_radial_613_1646" cx="0" cy="0" r="1" gradientUnits="userSpaceOnUse" gradientTransform="translate(18.3493 9.24914) scale(38.2864 56.7873)">
<stop stop-color="#AEB2D5"/>
<stop offset="0.3" stop-color="#AEB2D5"/>
<stop offset="0.75" stop-color="#484C89"/>
<stop offset="1" stop-color="#484C89"/>
</radialGradient>
<clipPath id="clip0_613_1646">
<rect width="60" height="48" fill="white"/>
</clipPath>
</defs>
</svg>
